<svg width="27" height="28" viewBox="0 0 27 28" fill="none" xmlns="http://www.w3.org/2000/svg">
<path fill-rule="evenodd" clip-rule="evenodd" d="M13.5 0C6.04416 0 0 6.26801 0 14C0 21.732 6.04416 28 13.5 28C20.9558 28 27 21.732 27 14C27 6.26801 20.9558 0 13.5 0ZM10.5319 6.57847C11.2999 6.54222 11.5453 6.53335 13.5007 6.53335H13.4984C15.4545 6.53335 15.699 6.54222 16.467 6.57847C17.2335 6.61487 17.757 6.74071 18.216 6.92536C18.69 7.11592 19.0905 7.37103 19.491 7.78637C19.8915 8.20139 20.1375 8.61798 20.322 9.10907C20.499 9.58383 20.6205 10.1264 20.6565 10.9213C20.691 11.7178 20.7 11.9723 20.7 14.0001C20.7 16.0279 20.691 16.2818 20.6565 17.0783C20.6205 17.8728 20.499 18.4156 20.322 18.8905C20.1375 19.3814 19.8915 19.798 19.491 20.2131C19.091 20.6284 18.6899 20.8841 18.2164 21.0748C17.7583 21.2595 17.2345 21.3853 16.468 21.4217C15.7 21.458 15.4554 21.4668 13.4998 21.4668C11.5445 21.4668 11.2993 21.458 10.5313 21.4217C9.76491 21.3853 9.24155 21.2595 8.78345 21.0748C8.31019 20.8841 7.90849 20.6284 7.50843 20.2131C7.10808 19.798 6.86208 19.3814 6.67803 18.8903C6.50012 18.4156 6.37877 17.873 6.34352 17.0781C6.30872 16.2817 6.30002 16.0279 6.30002 14.0001C6.30002 11.9723 6.30902 11.7176 6.34337 10.9212C6.37787 10.1266 6.49937 9.58383 6.67788 9.10891C6.86238 8.61798 7.10838 8.20139 7.50888 7.78637C7.90909 7.37118 8.31079 7.11607 8.78435 6.92536C9.24215 6.74071 9.76536 6.61487 10.5319 6.57847Z" fill="white"/>
<path fill-rule="evenodd" clip-rule="evenodd" d="M12.8543 7.87882C12.9797 7.87862 13.1146 7.87868 13.2602 7.87875L13.5002 7.87882C15.4226 7.87882 15.6505 7.88598 16.4096 7.92175C17.1117 7.95504 17.4927 8.07669 17.7465 8.17889C18.0825 8.31422 18.322 8.476 18.5739 8.73734C18.8259 8.99868 18.9819 9.24757 19.1127 9.59602C19.2112 9.85891 19.3287 10.254 19.3606 10.982C19.3951 11.7691 19.4026 12.0056 19.4026 13.9983C19.4026 15.991 19.3951 16.2274 19.3606 17.0145C19.3285 17.7425 19.2112 18.1377 19.1127 18.4005C18.9822 18.749 18.8259 18.9971 18.5739 19.2583C18.3219 19.5196 18.0826 19.6814 17.7465 19.8167C17.493 19.9194 17.1117 20.0407 16.4096 20.074C15.6506 20.1098 15.4226 20.1176 13.5002 20.1176C11.5776 20.1176 11.3498 20.1098 10.5908 20.074C9.88878 20.0404 9.50778 19.9188 9.25382 19.8166C8.91782 19.6813 8.67782 19.5195 8.42581 19.2581C8.17381 18.9968 8.01781 18.7485 7.88701 18.3999C7.78846 18.137 7.67101 17.7419 7.63906 17.0139C7.60456 16.2268 7.59766 15.9903 7.59766 13.9964C7.59766 12.0025 7.60456 11.7673 7.63906 10.9802C7.67116 10.2522 7.78846 9.85704 7.88701 9.59384C8.01751 9.24539 8.17381 8.9965 8.42581 8.73516C8.67782 8.47383 8.91782 8.31205 9.25382 8.1764C9.50763 8.07373 9.88878 7.9524 10.5908 7.91895C11.255 7.88784 11.5124 7.87851 12.8543 7.87695V7.87882ZM17.3436 9.1186C16.8666 9.1186 16.4795 9.51947 16.4795 10.0143C16.4795 10.509 16.8666 10.9103 17.3436 10.9103C17.8206 10.9103 18.2076 10.509 18.2076 10.0143C18.2076 9.51962 17.8206 9.11829 17.3436 9.11829V9.1186ZM9.80273 14C9.80273 11.8825 11.4582 10.1656 13.5001 10.1655C15.5421 10.1655 17.1972 11.8824 17.1972 14C17.1972 16.1176 15.5422 17.8337 13.5003 17.8337C11.4583 17.8337 9.80273 16.1176 9.80273 14Z" fill="white"/>
<path d="M13.5006 11.5112C14.826 11.5112 15.9006 12.6255 15.9006 14.0001C15.9006 15.3746 14.826 16.4891 13.5006 16.4891C12.175 16.4891 11.1006 15.3746 11.1006 14.0001C11.1006 12.6255 12.175 11.5112 13.5006 11.5112Z" fill="white"/>
</svg>
