<svg width="49" height="49" viewBox="0 0 49 49" fill="none" xmlns="http://www.w3.org/2000/svg">
<g clip-path="url(#clip0_46_60)">
<path d="M23.4319 29.4766H18.2482V17.6732C18.2482 17.1446 17.8197 16.7162 17.2911 16.7162C16.7626 16.7162 16.3341 17.1446 16.3341 17.6732V24.2767H14.0372V1.91406H16.3341V9.05993C16.3341 9.5885 16.7626 10.017 17.2911 10.017C17.8197 10.017 18.2482 9.5885 18.2482 9.05993V0.957031C18.2482 0.428463 17.8197 0 17.2911 0H13.0802C12.5516 0 12.1232 0.428463 12.1232 0.957031V29.4766H6.93941C5.04841 29.4766 3.50989 31.0151 3.50989 32.9061V35.4284C3.50989 39.7251 2.34441 43.9154 0.13951 47.5462C-0.0399335 47.8417 -0.0460585 48.2109 0.123432 48.5123C0.292922 48.8136 0.611805 49 0.957484 49H22.395C22.7294 49 23.0394 48.8255 23.213 48.5397C25.5998 44.6093 26.8614 40.0756 26.8614 35.4284V32.9061C26.8615 31.0151 25.323 29.4766 23.4319 29.4766ZM14.0372 26.1908H16.3341V29.4766H14.0372V26.1908ZM6.93941 31.3906H23.4319C24.2675 31.3906 24.9474 32.0704 24.9474 32.9061V34.4651H5.42395V32.9061C5.42395 32.0704 6.10373 31.3906 6.93941 31.3906ZM21.8492 47.0859H16.883C17.7006 45.5072 18.3536 43.8307 18.8299 42.0823C18.9689 41.5723 18.6681 41.0463 18.1581 40.9073C17.6478 40.7682 17.1221 41.0693 16.9832 41.5792C16.4527 43.5266 15.6858 45.3763 14.7023 47.0859H9.7371C10.5547 45.5073 11.2078 43.8308 11.6841 42.0823C11.823 41.5723 11.5222 41.0463 11.0122 40.9073C10.5021 40.7682 9.97616 41.0692 9.8373 41.5792C9.30682 43.5267 8.53995 45.3764 7.5565 47.0859H2.59296C4.30422 43.7893 5.26594 40.1357 5.40605 36.3855H24.928C24.7754 40.1658 23.7202 43.8369 21.8492 47.0859Z" fill="#00B027"/>
<path d="M33.2094 37.11C32.2709 37.11 31.3886 37.4754 30.7251 38.1391C30.3514 38.5128 30.3514 39.1188 30.7251 39.4925C31.0989 39.8662 31.7049 39.8662 32.0786 39.4925C32.3807 39.1905 32.7824 39.0241 33.2094 39.0241C33.6366 39.0241 34.0382 39.1905 34.3402 39.4926C34.6422 39.7947 34.8087 40.1963 34.8087 40.6234C34.8087 41.0507 34.6423 41.4522 34.3402 41.7543C33.9665 42.128 33.9665 42.734 34.3402 43.1077C34.5271 43.2946 34.772 43.388 35.0169 43.388C35.2618 43.388 35.5067 43.2945 35.6936 43.1077C36.3572 42.4441 36.7226 41.5618 36.7226 40.6233C36.7226 39.6849 36.3572 38.8026 35.6936 38.1391C35.0301 37.4755 34.1479 37.11 33.2094 37.11Z" fill="#00B027"/>
<path d="M32.3335 25.457C33.2306 25.457 33.9604 26.1869 33.9604 27.084C33.9604 27.6126 34.389 28.041 34.9175 28.041C35.446 28.041 35.8745 27.6126 35.8745 27.084C35.8745 25.1314 34.286 23.543 32.3335 23.543C30.381 23.543 28.7925 25.1314 28.7925 27.084C28.7925 27.6126 29.221 28.041 29.7495 28.041C30.278 28.041 30.7065 27.6126 30.7065 27.084C30.7065 26.1869 31.4363 25.457 32.3335 25.457Z" fill="#00B027"/>
<path d="M45.1992 36.8491C45.6482 36.0278 45.8873 35.1028 45.8873 34.1469C45.8873 31.0341 43.3548 28.5016 40.242 28.5016C38.7786 28.5016 37.3911 29.0592 36.3352 30.0719C35.9537 30.4378 35.941 31.0436 36.3067 31.425C36.6724 31.8065 37.2784 31.8191 37.6599 31.4534C38.3578 30.7842 39.2748 30.4156 40.242 30.4156C42.2994 30.4156 43.9732 32.0895 43.9732 34.1469C43.9732 35.1039 43.6103 36.0143 42.9514 36.7104C42.7103 36.9651 42.6279 37.3312 42.7365 37.6647C42.8451 37.9981 43.1272 38.2454 43.472 38.3093C45.566 38.6975 47.0859 40.5271 47.0859 42.6597C47.0859 45.1003 45.1002 47.086 42.6596 47.086C41.1038 47.086 39.6902 46.292 38.8783 44.962C38.6029 44.511 38.014 44.3684 37.5629 44.6438C37.1116 44.9193 36.9692 45.5082 37.2446 45.9594C38.4069 47.8634 40.4313 49 42.6596 49C46.1557 49 49 46.1557 49 42.6597C49 40.096 47.466 37.8379 45.1992 36.8491Z" fill="#00B027"/>
<path d="M17.291 12.4098C17.0393 12.4098 16.7924 12.5112 16.6144 12.6902C16.4364 12.8682 16.334 13.1142 16.334 13.3668C16.334 13.6185 16.4364 13.8654 16.6144 14.0434C16.7924 14.2215 17.0393 14.3239 17.291 14.3239C17.5427 14.3239 17.7896 14.2215 17.9676 14.0434C18.1456 13.8654 18.248 13.6185 18.248 13.3668C18.248 13.1142 18.1456 12.8682 17.9676 12.6902C17.7896 12.5112 17.5427 12.4098 17.291 12.4098Z" fill="#00B027"/>
</g>
<defs>
<clipPath id="clip0_46_60">
<rect width="49" height="49" fill="white"/>
</clipPath>
</defs>
</svg>
