<svg width="45" height="45" viewBox="0 0 45 45" fill="none" xmlns="http://www.w3.org/2000/svg">
<path d="M39.7019 20.8529C38.1706 20.0874 35.2997 20.0785 35.1782 20.0785C34.8142 20.0785 34.519 20.3736 34.519 20.7377C34.519 21.1017 34.8142 21.3969 35.1782 21.3969C35.9191 21.3969 38.07 21.511 39.1123 22.0321C39.207 22.0795 39.3075 22.1018 39.4066 22.1018C39.6483 22.1018 39.8812 21.9682 39.9967 21.7373C40.1595 21.4117 40.0275 21.0158 39.7019 20.8529Z" fill="#00B027"/>
<path d="M42.9884 30.2379L40.2659 29.4601C40.1484 29.4265 40.0663 29.3177 40.0663 29.1954V28.2867C40.2878 28.1333 40.4991 27.9615 40.6966 27.7699C41.6537 26.841 42.1808 25.5952 42.1808 24.2617V23.0078L42.4441 22.4814C42.7329 21.9035 42.8856 21.2565 42.8856 20.6106V17.2136C42.8856 16.8495 42.5905 16.5544 42.2264 16.5544H35.8831C33.5765 16.5544 31.6999 18.431 31.6999 20.7376V20.7769C31.6999 21.3141 31.8269 21.8521 32.0671 22.3325L32.4047 23.0077V24.0843C32.4047 25.7906 33.2455 27.3216 34.5191 28.2429L34.5193 29.1953C34.5193 29.3421 34.5193 29.403 33.975 29.5585L32.6466 29.938L28.804 28.5407C28.8178 28.3594 28.7566 28.175 28.6243 28.0361L27.3964 26.746V24.5804C27.5262 24.4734 27.6542 24.3636 27.7782 24.2474C29.3273 22.7954 30.2157 20.7455 30.2157 18.6232V16.8937C30.6834 15.8758 30.9204 14.7987 30.9204 13.6894V6.64148C30.9204 6.27744 30.6253 5.9823 30.2613 5.9823H20.3939C16.9213 5.9823 14.0963 8.80746 14.0963 12.2799V13.6896C14.0963 14.7989 14.3333 15.876 14.801 16.8938V18.3819C14.801 20.846 15.8967 23.066 17.6203 24.5295V26.7461L16.3924 28.0362C16.2601 28.1751 16.1989 28.3595 16.2127 28.5408L12.157 30.0156C11.8631 30.1224 11.59 30.2672 11.3421 30.4425L10.7053 30.1241C12.6011 29.2989 13.2016 28.1383 13.2304 28.0806C13.3233 27.8951 13.3233 27.6766 13.2304 27.4911C12.7552 26.5406 12.6976 24.7985 12.6514 23.3988C12.636 22.9328 12.6214 22.4926 12.5936 22.1006C12.3688 18.9388 9.96521 16.5544 7.00242 16.5544C4.03963 16.5544 1.63591 18.9387 1.41126 22.1006C1.3834 22.4926 1.36881 22.9329 1.35343 23.399C1.3072 24.7986 1.24954 26.5405 0.774404 27.491C0.681592 27.6765 0.681592 27.895 0.774404 28.0806C0.803232 28.1382 1.40256 29.2964 3.30214 30.1226L1.53316 31.007C0.587461 31.4802 0 32.4308 0 33.488V38.358C0 38.722 0.295137 39.0171 0.65918 39.0171C1.02322 39.0171 1.31836 38.722 1.31836 38.358V33.488C1.31836 32.9333 1.62659 32.4345 2.12273 32.1864L4.32554 31.085L5.09177 31.8132C5.62755 32.3223 6.31485 32.5768 7.00242 32.5768C7.68981 32.5768 8.37747 32.3222 8.91308 31.8132L9.67922 31.0851L10.3975 31.4442C10.0593 31.9854 9.8673 32.6199 9.8673 33.2846V38.3581C9.8673 38.7222 10.1624 39.0173 10.5265 39.0173C10.8905 39.0173 11.1857 38.7222 11.1857 38.3581V33.2846C11.1857 32.3797 11.757 31.5639 12.6076 31.2546L16.8836 29.6998L18.6637 32.37C18.8912 32.7113 19.2559 32.9303 19.6641 32.9707C19.7096 32.9752 19.7549 32.9774 19.8001 32.9774C20.1603 32.9774 20.5052 32.8356 20.7631 32.5778L21.8491 31.4919V38.3582C21.8491 38.7223 22.1442 39.0174 22.5083 39.0174C22.8723 39.0174 23.1674 38.7223 23.1674 38.3582V31.4919L24.2534 32.5778C24.5112 32.8357 24.8562 32.9775 25.2164 32.9775C25.2615 32.9775 25.3069 32.9753 25.3523 32.9708C25.7607 32.9304 26.1253 32.7114 26.3529 32.3701L28.133 29.6999L32.409 31.2548C33.2594 31.5641 33.8309 32.3799 33.8309 33.2848V38.3583C33.8309 38.7223 34.126 39.0175 34.49 39.0175C34.8541 39.0175 35.1492 38.7223 35.1492 38.3583V33.2848C35.1492 32.3683 34.7851 31.5087 34.1742 30.873L34.3371 30.8265C34.5014 30.7796 34.7255 30.7153 34.9505 30.605L36.6335 32.2881V38.3583C36.6335 38.7223 36.9287 39.0175 37.2927 39.0175C37.6567 39.0175 37.9519 38.7223 37.9519 38.3583V32.2881L39.6232 30.6167C39.7121 30.6619 39.8054 30.7 39.9037 30.7281L42.6262 31.5059C43.2475 31.6835 43.6816 32.2589 43.6816 32.9052V38.3583C43.6816 38.7223 43.9768 39.0175 44.3408 39.0175C44.7049 39.0175 45 38.7223 45 38.3583V32.9052C45 31.6732 44.1728 30.5764 42.9884 30.2379ZM4.22886 29.0736C2.99584 28.63 2.37735 28.0385 2.11333 27.7155C2.29333 27.2449 2.41005 26.7059 2.48906 26.137C2.85258 27.0086 3.4614 27.7527 4.22886 28.2836V29.0736ZM8.00508 30.8576C7.44284 31.3918 6.56209 31.3917 6.00003 30.8575L5.38699 30.275C5.49044 30.0812 5.5473 29.8615 5.5473 29.6313V28.9287C6.00715 29.0724 6.496 29.1499 7.0026 29.1499C7.50858 29.1499 7.99717 29.072 8.4578 28.9291L8.45772 29.6312C8.45772 29.8615 8.51449 30.0813 8.61803 30.2752L8.00508 30.8576ZM7.00277 27.8316C5.03438 27.8316 3.4331 26.2302 3.4331 24.2619C3.4331 23.8978 3.13796 23.6027 2.77392 23.6027C2.737 23.6027 2.70097 23.6065 2.66572 23.6124C2.66766 23.5557 2.6695 23.4989 2.67144 23.4427C2.68611 22.9895 2.70026 22.5614 2.72637 22.1942C2.81057 21.0097 3.28386 19.9183 4.05905 19.1208C4.84119 18.3161 5.88656 17.8729 7.0026 17.8729C8.11863 17.8729 9.16392 18.3161 9.94614 19.1208C10.7213 19.9183 11.1946 21.0097 11.2788 22.1942C11.3048 22.5613 11.3191 22.9893 11.334 23.4425C11.3353 23.4814 11.3367 23.5209 11.338 23.5601C10.6208 22.4551 9.51319 21.6408 8.08207 21.181C6.75993 20.7562 5.6228 20.7825 5.57481 20.7837C5.4022 20.7885 5.23837 20.8608 5.11857 20.9851L3.92924 22.2185C3.67655 22.4806 3.68411 22.8979 3.9462 23.1506C4.20829 23.4033 4.6256 23.3956 4.87828 23.1336L5.86793 22.1073C6.7202 22.149 9.46213 22.4679 10.5285 24.816C10.2602 26.5464 8.77289 27.8316 7.00277 27.8316ZM9.77599 29.0758L9.77607 28.2896C10.5429 27.7617 11.1526 27.019 11.5164 26.1408C11.5954 26.7084 11.712 27.2461 11.8917 27.7156C11.6292 28.0355 11.0078 28.6323 9.77599 29.0758ZM16.1194 18.3818V16.7464C16.1194 16.6471 16.097 16.5491 16.0538 16.4597C15.6297 15.5814 15.4146 14.6494 15.4146 13.6896V12.28C15.4146 9.5344 17.6483 7.30075 20.3939 7.30075H29.6021V13.6897C29.6021 14.6495 29.387 15.5814 28.9629 16.4598C28.9197 16.5492 28.8973 16.6472 28.8973 16.7464V18.6233C28.8973 20.4085 28.1797 22.0643 26.8766 23.2857C26.7139 23.4381 26.5451 23.581 26.3705 23.7141C26.3667 23.7168 26.363 23.7197 26.3592 23.7224C25.1385 24.6492 23.6433 25.0997 22.0818 24.9985C18.7384 24.782 16.1194 21.8757 16.1194 18.3818ZM19.8309 31.6455C19.8264 31.6501 19.8157 31.6609 19.7942 31.6586C19.7728 31.6565 19.7643 31.6439 19.7607 31.6385L17.7107 28.5633L18.3704 27.8701L21.4804 29.996L19.8309 31.6455ZM22.5084 29.1017L18.9387 26.6616V25.4312C19.8623 25.9305 20.8965 26.2428 21.9965 26.3139C22.1702 26.3252 22.3429 26.3307 22.5151 26.3307C23.7756 26.3307 24.9886 26.0294 26.078 25.4575V26.6616L22.5084 29.1017ZM25.256 31.6386C25.2524 31.6441 25.2439 31.6566 25.2225 31.6588C25.201 31.6615 25.1904 31.6501 25.1858 31.6457L23.5363 29.9962L26.6463 27.8703L27.3061 28.5635L25.256 31.6386ZM37.2927 31.0825L35.7968 29.5866C35.8229 29.4681 35.8377 29.3383 35.8376 29.1951L35.8375 28.9169C36.2526 29.0531 36.6901 29.134 37.1428 29.1475C37.1936 29.1491 37.244 29.1498 37.2946 29.1498C37.7949 29.1498 38.2832 29.0742 38.748 28.93V29.1954C38.748 29.3269 38.7645 29.4558 38.7956 29.5796L37.2927 31.0825ZM39.7785 26.8238C39.0799 27.5018 38.1569 27.8599 37.1825 27.8298C35.2749 27.7726 33.723 26.0924 33.723 24.0845V22.8522C33.723 22.7498 33.6992 22.6489 33.6534 22.5574L33.2462 21.743C33.0971 21.4446 33.0182 21.1106 33.0182 20.777V20.7377C33.0182 19.158 34.3034 17.8728 35.8831 17.8728H41.5673V20.6106C41.5673 21.0531 41.4627 21.4961 41.2648 21.8919L40.9321 22.5574C40.8863 22.649 40.8625 22.7498 40.8625 22.8522V24.2618C40.8625 25.2356 40.4775 26.1455 39.7785 26.8238Z" fill="#00B027"/>
<path d="M41.5215 33.47C41.1574 33.47 40.8623 33.7651 40.8623 34.1292V38.358C40.8623 38.7221 41.1574 39.0172 41.5215 39.0172C41.8855 39.0172 42.1807 38.7221 42.1807 38.358V34.1292C42.1807 33.7652 41.8855 33.47 41.5215 33.47Z" fill="#00B027"/>
<path d="M3.47852 34.3413C3.11447 34.3413 2.81934 34.6364 2.81934 35.0005V38.358C2.81934 38.722 3.11447 39.0172 3.47852 39.0172C3.84256 39.0172 4.1377 38.722 4.1377 38.358V35.0005C4.1377 34.6365 3.84256 34.3413 3.47852 34.3413Z" fill="#00B027"/>
<path d="M27.9082 13.9285C25.4151 11.4354 20.1989 11.912 18.0717 12.2326C17.4017 12.3336 16.9155 12.9006 16.9155 13.5808V15.0994C16.9155 15.4634 17.2107 15.7585 17.5747 15.7585C17.9388 15.7585 18.2339 15.4634 18.2339 15.0994V13.5807C18.2339 13.5583 18.2487 13.5391 18.2683 13.5361C19.118 13.4081 20.804 13.2105 22.5508 13.327C24.6064 13.4638 26.0953 13.9798 26.976 14.8606C27.2335 15.1181 27.6508 15.1181 27.9082 14.8606C28.1656 14.6032 28.1656 14.1858 27.9082 13.9285Z" fill="#00B027"/>
<path d="M14.7554 34.8796C14.3913 34.8796 14.0962 35.1748 14.0962 35.5388V38.3581C14.0962 38.7221 14.3913 39.0173 14.7554 39.0173C15.1194 39.0173 15.4145 38.7221 15.4145 38.3581V35.5388C15.4145 35.1749 15.1194 34.8796 14.7554 34.8796Z" fill="#00B027"/>
<path d="M30.2612 34.8796C29.8972 34.8796 29.6021 35.1748 29.6021 35.5388V38.3581C29.6021 38.7221 29.8972 39.0173 30.2612 39.0173C30.6253 39.0173 30.9204 38.7221 30.9204 38.3581V35.5388C30.9204 35.1749 30.6253 34.8796 30.2612 34.8796Z" fill="#00B027"/>
</svg>
