<svg width="90" height="57" viewBox="0 0 90 57" fill="none" xmlns="http://www.w3.org/2000/svg">
<path d="M7.31299 15.2046L8.04145 14.6592C10.2569 19.3334 11.1696 28.0359 11.1696 28.0359L9.71826 28.2526C9.71826 28.2526 9.34166 20.1113 7.31299 15.2046Z" fill="#AF6E5A"/>
<path d="M8.01461 12.611C8.14377 12.8325 8.24206 13.0903 8.28573 13.3781C8.36192 13.8799 8.26423 14.3485 8.0551 14.6889C10.2606 19.37 11.1698 28.0359 11.1698 28.0359L10.4915 28.1371C10.3268 26.5502 9.53737 19.6526 7.88596 15.3138C7.82492 15.1535 7.68786 15.0856 7.5708 15.138C7.5004 15.1696 7.42605 15.1919 7.34808 15.2036C6.70661 15.2994 6.08012 14.67 5.92334 13.7911C6.61265 13.3768 7.30664 12.9752 8.01461 12.611Z" fill="#965A50"/>
<path d="M6.99353 13.5601C6.86432 11.3094 7.23384 8.69835 7.39246 7.71311C7.42008 7.5415 7.28586 7.38337 7.16907 7.45092C6.71117 7.71576 5.84809 8.3986 5.57642 9.88011C5.45399 10.5478 5.51825 11.718 6.99353 13.5601Z" fill="#AFD755"/>
<path d="M6.99365 13.5601C9.36629 12.7183 11.5826 13.3262 12.3888 13.6095C12.5006 13.6488 12.5694 13.4777 12.4929 13.3538C12.0749 12.6768 11.0794 11.317 9.74935 11.162C8.81359 11.053 7.41319 11.4351 6.99365 13.5601Z" fill="#AFD755"/>
<path d="M6.99337 13.5582C5.2771 14.8157 4.37674 16.8766 4.03107 17.8387C3.96791 18.0145 3.76919 17.9572 3.73499 17.7545C3.58933 16.8907 3.37959 15.1284 4.05284 14.082C5.529 11.7879 6.99337 13.5582 6.99337 13.5582Z" fill="#AFD755"/>
<path d="M2.4242 11.1869C2.90577 10.6845 3.86429 9.90292 4.92995 10.24C5.82126 10.522 6.32639 11.2171 6.61438 11.899C6.54577 10.9889 6.6865 9.843 7.49645 8.82699C8.38871 7.70771 9.56951 7.69235 10.311 7.83844C10.485 7.87274 10.5476 8.18823 10.4034 8.30852C9.6139 8.96717 7.8066 11.3608 6.99354 13.5602C5.68436 12.6085 3.35216 11.6352 2.53376 11.5782C2.38423 11.5678 2.31119 11.3049 2.4242 11.1869Z" fill="#96BE4B"/>
<path fill-rule="evenodd" clip-rule="evenodd" d="M25.1073 12.4026L16.6914 20.7489L32.9719 20.258L25.1073 12.4026Z" fill="url(#paint0_linear_136_873)"/>
<path fill-rule="evenodd" clip-rule="evenodd" d="M61.9202 3.23944L52.4971 13.0994L71.2699 12.5184L61.9202 3.23944Z" fill="url(#paint1_linear_136_873)"/>
<path fill-rule="evenodd" clip-rule="evenodd" d="M64.9276 13.0029L56.6221 21.1841L72.738 20.7489L64.9276 13.0029Z" fill="url(#paint2_linear_136_873)"/>
<path fill-rule="evenodd" clip-rule="evenodd" d="M63.4548 1.14441e-05L46.4113 5.1926L37.8008 14.0363L37.8203 14.0427L41.7223 18.0476L46.2772 17.9983L63.4548 1.14441e-05Z" fill="url(#paint3_linear_136_873)"/>
<path fill-rule="evenodd" clip-rule="evenodd" d="M72.8678 5.56136L72.6127 5.65995L70.8662 6.33744V7.2786L72.7598 9.24676L72.8678 9.35821V5.56136Z" fill="url(#paint4_linear_136_873)"/>
<path fill-rule="evenodd" clip-rule="evenodd" d="M75.5549 6.33744L72.8677 5.56136V9.35821L75.5549 12.1496V6.33744Z" fill="url(#paint5_linear_136_873)"/>
<path fill-rule="evenodd" clip-rule="evenodd" d="M63.8742 0.861862L62.502 2.31116L75.3776 15.6057V18.412H80.7776L63.8742 0.861862Z" fill="url(#paint6_linear_136_873)"/>
<path fill-rule="evenodd" clip-rule="evenodd" d="M16.624 14.3257L16.8229 14.4051L18.1805 14.9304V15.6614L16.7083 17.1922L16.624 17.2779V14.3257Z" fill="url(#paint7_linear_136_873)"/>
<path fill-rule="evenodd" clip-rule="evenodd" d="M14.5361 14.9303L16.6245 14.3279V17.2779L14.5361 19.4476V14.9303Z" fill="url(#paint8_linear_136_873)"/>
<path fill-rule="evenodd" clip-rule="evenodd" d="M23.57 10.7475L24.6423 11.8645L14.672 22.1339L15.1131 27.8581L1.89795 30.0857L14.4386 27.1314L13.4679 23.8576H10.8867L23.57 10.7475Z" fill="url(#paint9_linear_136_873)"/>
<path d="M24.64 19.0917H22.9819V20.7361H24.64V19.0917Z" fill="url(#paint10_linear_136_873)"/>
<path d="M26.8641 19.0917H25.2061V20.7361H26.8641V19.0917Z" fill="url(#paint11_linear_136_873)"/>
<path d="M24.64 21.2807H22.9819V22.9229H24.64V21.2807Z" fill="url(#paint12_linear_136_873)"/>
<path d="M26.8641 21.2807H25.2061V22.9229H26.8641V21.2807Z" fill="url(#paint13_linear_136_873)"/>
<path fill-rule="evenodd" clip-rule="evenodd" d="M71.5615 16.699V17.4966L75.0295 20.9355V20.3008L71.5615 16.699Z" fill="#6D6E70"/>
<path fill-rule="evenodd" clip-rule="evenodd" d="M66.4605 11.3928L65.4141 12.4626L74.898 22.2346L74.4592 27.8582L86.6754 30.4309L75.0879 27.2021L75.9679 24.3099H78.8929L66.4605 11.3928Z" fill="url(#paint14_linear_136_873)"/>
<path fill-rule="evenodd" clip-rule="evenodd" d="M23.9399 10.0057L37.1874 14.0427L45.5731 22.6548L53.4788 14.5337L66.0845 10.6939L54.1814 22.895V24.0034H36.273V22.895L23.9399 10.0057Z" fill="url(#paint15_linear_136_873)"/>
<path fill-rule="evenodd" clip-rule="evenodd" d="M38.5425 14.0299L46.6968 5.65355L61.6933 1.08484L46.0482 17.4773L41.943 17.5224L38.5425 14.0299Z" fill="url(#paint16_linear_136_873)"/>
<path fill-rule="evenodd" clip-rule="evenodd" d="M36.8023 23.4803V22.6849L25.708 11.0927L36.9018 14.5037L45.5728 23.4074L53.7638 14.9968L64.2764 11.7916L53.6536 22.6827V23.4803H36.8023Z" fill="url(#paint17_linear_136_873)"/>
<path d="M66.7885 19.3403H65.2129V20.9033H66.7885V19.3403Z" fill="url(#paint18_linear_136_873)"/>
<path d="M64.6591 19.3404H63.0835V20.9033H64.6591V19.3404Z" fill="url(#paint19_linear_136_873)"/>
<path d="M66.7885 21.4307H65.2129V22.9936H66.7885V21.4307Z" fill="url(#paint20_linear_136_873)"/>
<path d="M64.6591 21.4307H63.0835V22.9936H64.6591V21.4307Z" fill="url(#paint21_linear_136_873)"/>
<path d="M1.90436 31.6358C1.9022 31.6358 1.89788 31.6358 1.89355 31.638C9.54417 30.1972 17.2402 29.0867 24.9968 28.3856C31.4346 27.8025 37.8854 27.6181 44.3449 27.468C55.4328 27.2086 66.6718 27.8968 77.576 29.9528C80.633 30.5296 83.6682 31.2199 86.6796 31.9896C77.1828 29.8113 67.6103 29.1039 57.8757 28.6944C53.3661 28.5057 48.8609 28.4907 44.3492 28.4885C37.9049 28.6022 31.4692 28.8359 25.0378 29.2732C17.2813 29.8435 9.5831 30.3966 1.90436 31.6358Z" fill="#00B027"/>
<path d="M5.62913 46.2172C4.13956 46.2172 2.97331 45.7878 2.13038 44.9289C1.29899 44.0701 0.883301 42.8676 0.883301 41.3217C0.883301 39.8215 1.21239 38.4645 1.87057 37.2507C2.5403 36.0253 3.44097 35.0634 4.57258 34.3649C5.7042 33.6663 6.95128 33.3171 8.31381 33.3171C9.1452 33.3171 9.79759 33.4487 10.271 33.7121C10.7445 33.9755 10.9812 34.3419 10.9812 34.8115C10.9812 35.2008 10.8253 35.5329 10.5135 35.8078C10.2018 36.0712 9.81491 36.2028 9.35305 36.2028C8.26764 36.2028 7.48243 35.7276 6.99745 34.7771C6.24688 35.0978 5.57717 35.5845 4.98827 36.2372C4.39937 36.8899 3.93749 37.6687 3.60263 38.5733C3.26776 39.4665 3.10033 40.4285 3.10033 41.4591C3.10033 42.5699 3.31972 43.4402 3.75851 44.0701C4.1973 44.6999 4.80352 45.0148 5.57717 45.0148C6.46631 45.0148 7.19377 44.6999 7.75956 44.0701C8.33693 43.4402 8.66022 42.6386 8.72951 41.6652C9.67634 41.6652 10.1498 42.0603 10.1498 42.8505C10.1498 43.4574 9.94194 44.0185 9.52625 44.5338C9.12209 45.0492 8.57362 45.4614 7.8808 45.7706C7.18798 46.0684 6.4374 46.2172 5.62913 46.2172ZM14.0372 46.2172C13.3212 46.2172 12.9633 45.7649 12.9633 44.8602C12.9633 44.2991 13.148 42.8275 13.5176 40.4456C13.8986 38.0637 14.2623 35.9394 14.6087 34.0729L13.8466 33.214C14.1122 32.9849 14.4297 32.8075 14.7993 32.6815C15.1803 32.5441 15.5267 32.4754 15.8385 32.4754C16.1618 32.4754 16.3928 32.5498 16.5313 32.6987C16.6699 32.8361 16.7392 33.0766 16.7392 33.4201C16.7392 33.6148 16.6699 34.0442 16.5313 34.7084C16.3928 35.3612 16.3062 35.7848 16.2715 35.9795C15.8905 37.8233 15.5787 39.4608 15.3362 40.8923C15.1052 42.3122 14.9898 43.5777 14.9898 44.6884C14.9898 44.906 15.0186 45.1121 15.0764 45.3068C15.1457 45.49 15.2323 45.6332 15.3362 45.7363C14.9783 46.0569 14.5453 46.2172 14.0372 46.2172ZM28.2573 37.9378C28.2573 39.1172 27.6453 40.0448 26.4214 40.7205C25.2089 41.3847 23.4769 41.7454 21.2252 41.8027V42.129C21.2252 43.0452 21.3984 43.7666 21.7448 44.2934C22.0912 44.8087 22.5647 45.0663 23.1651 45.0663C23.9157 45.0663 24.5276 44.8316 25.0011 44.3621C25.4745 43.8925 25.7343 43.2685 25.7805 42.4897C26.7158 42.4897 27.1835 42.8333 27.1835 43.5204C27.1835 43.9784 26.9987 44.4194 26.6292 44.843C26.2597 45.2553 25.7516 45.5874 25.105 45.8393C24.4699 46.0912 23.7655 46.2172 22.9919 46.2172C21.7679 46.2172 20.8095 45.8451 20.1167 45.1007C19.4239 44.3563 19.0774 43.3314 19.0774 42.026C19.0774 40.7892 19.3488 39.6727 19.8915 38.6764C20.4342 37.6801 21.1848 36.9014 22.1432 36.3403C23.1016 35.7677 24.1697 35.4814 25.3475 35.4814C26.2597 35.4814 26.9698 35.699 27.4779 36.1341C27.9975 36.5693 28.2573 37.1705 28.2573 37.9378ZM25.053 36.5636C24.4641 36.5636 23.9099 36.7525 23.3903 37.1304C22.8822 37.4969 22.4434 38.0065 22.0739 38.6592C21.716 39.3005 21.4677 40.0276 21.3291 40.8407C22.9226 40.8064 24.1582 40.5315 25.0357 40.0162C25.9249 39.5009 26.3694 38.7909 26.3694 37.8862C26.3694 37.4854 26.2481 37.1648 26.0057 36.9243C25.7632 36.6838 25.4456 36.5636 25.053 36.5636ZM39.1934 44.843C39.1934 45.2439 39.2973 45.5416 39.5052 45.7363C39.1472 46.0569 38.7604 46.2172 38.3447 46.2172C37.952 46.2172 37.6519 46.097 37.444 45.8565C37.2362 45.616 37.1322 45.2667 37.1322 44.8087C37.1322 44.5568 37.1726 44.2132 37.2535 43.778L37.0803 43.6922C36.6646 44.4937 36.1392 45.1179 35.5041 45.5645C34.8806 45.9997 34.1993 46.2172 33.4603 46.2172C32.8367 46.2172 32.2825 46.0512 31.7975 45.7191C31.3241 45.387 30.9545 44.9175 30.689 44.3105C30.4349 43.6922 30.3079 42.9821 30.3079 42.1806C30.3079 40.9438 30.6024 39.8158 31.1913 38.7966C31.7802 37.766 32.5827 36.9586 33.5989 36.3746C34.615 35.7792 35.735 35.4814 36.959 35.4814C37.4902 35.4814 38.0329 35.5272 38.5872 35.6188C38.668 35.7562 38.7315 35.9394 38.7777 36.1685C39.0202 35.9967 39.2973 35.9108 39.6091 35.9108C39.8977 35.9108 40.1229 35.9795 40.2846 36.117C40.4578 36.2544 40.5444 36.4433 40.5444 36.6838C40.5444 36.9472 40.504 37.2621 40.4231 37.6286C40.3539 37.995 40.2326 38.5332 40.0594 39.2432C39.7823 40.3999 39.5686 41.4018 39.4186 42.2493C39.2684 43.0967 39.1934 43.9613 39.1934 44.843ZM34.2917 44.6026C35.3655 44.6026 36.2489 43.9269 36.9417 42.5756C37.6345 41.2129 38.1542 39.1631 38.5006 36.4261C37.2535 36.4605 36.168 36.7353 35.2443 37.2507C34.3321 37.7545 33.6335 38.4302 33.1485 39.2776C32.6751 40.125 32.4384 41.0755 32.4384 42.129C32.4384 42.9077 32.6 43.5146 32.9234 43.9498C33.2467 44.385 33.7028 44.6026 34.2917 44.6026ZM44.9273 46.2172C44.5231 46.2172 44.2229 46.1199 44.0266 45.9252C43.8419 45.7305 43.7495 45.4213 43.7495 44.9976C43.7495 44.4937 43.8996 43.4574 44.1998 41.8885C44.5116 40.3082 44.8638 38.7451 45.2564 37.1991L44.4769 36.3403C44.7541 36.0998 45.0774 35.9051 45.4469 35.7562C45.8279 35.6074 46.1686 35.5329 46.4688 35.5329C46.8152 35.5329 47.0577 35.6016 47.1963 35.7391C47.3348 35.8765 47.4041 36.1227 47.4041 36.4777C47.4041 36.7754 47.3521 37.1132 47.2482 37.4911C47.1558 37.869 47.0288 38.2183 46.8672 38.539L47.0404 38.6248C48.2066 36.5292 49.7193 35.4814 51.5784 35.4814C52.3289 35.4814 52.8832 35.6703 53.2411 36.0482C53.6106 36.4147 53.7954 36.9873 53.7954 37.766C53.7954 38.224 53.7434 38.6993 53.6395 39.1917C53.5471 39.6841 53.4085 40.3025 53.2238 41.0469C53.0044 41.9172 52.8428 42.6329 52.7388 43.194C52.6349 43.7437 52.5829 44.2934 52.5829 44.843C52.5829 45.2553 52.658 45.5531 52.8081 45.7363C52.4617 46.0569 52.0922 46.2172 51.6996 46.2172C51.307 46.2172 51.0126 46.1199 50.8162 45.9252C50.6315 45.7305 50.5391 45.4213 50.5391 44.9976C50.5391 44.5625 50.5853 44.0758 50.6777 43.5376C50.7816 42.9879 50.926 42.2779 51.1107 41.4076C51.2839 40.6861 51.4109 40.0849 51.4918 39.604C51.5841 39.1116 51.6303 38.6878 51.6303 38.3328C51.6303 37.4053 51.2781 36.9415 50.5738 36.9415C49.7539 36.9415 48.9745 37.3308 48.2355 38.1095C47.508 38.8768 46.9191 39.873 46.4688 41.0984C46.03 42.3237 45.8106 43.5719 45.8106 44.843C45.8106 45.2667 45.8799 45.5645 46.0185 45.7363C45.6721 46.0569 45.3083 46.2172 44.9273 46.2172ZM63.734 44.0529C63.8381 44.3621 63.8899 44.614 63.8899 44.8087C63.8899 45.2897 63.6939 45.6446 63.3012 45.8737C62.9086 46.1027 62.2965 46.2172 61.465 46.2172C60.7494 46.2172 60.0393 46.1256 59.3348 45.9424C58.9188 46.1371 58.5322 46.2344 58.1741 46.2344C57.747 46.2344 57.4351 46.1256 57.2391 45.908C57.0425 45.6905 56.9444 45.3354 56.9444 44.843C56.9444 44.1674 57.0369 43.1482 57.2218 41.7855C57.4061 40.4113 57.7587 38.1782 58.2783 35.0863L57.7414 34.0385C58.515 33.5575 59.2017 33.3171 59.8026 33.3171C60.3105 33.3171 60.5645 33.6205 60.5645 34.2275C60.5645 34.3878 60.3968 35.4642 60.0621 37.4568C59.7274 39.5524 59.479 41.1098 59.3175 42.129C59.1671 43.1482 59.092 43.8639 59.092 44.2762C59.092 44.3793 59.0981 44.4537 59.1098 44.4995H61.846C62.5388 44.4194 63.1681 44.2704 63.734 44.0529ZM68.9819 34.0213C68.6121 34.0213 68.3175 33.9354 68.0986 33.7637C67.8792 33.5805 67.7695 33.34 67.7695 33.0422C67.7695 32.6987 67.9137 32.4009 68.2022 32.149C68.4907 31.8856 68.8605 31.7539 69.3111 31.7539C69.692 31.7539 69.9861 31.8455 70.1944 32.0288C70.4138 32.2005 70.5235 32.4296 70.5235 32.7158C70.5235 33.0823 70.3787 33.3915 70.0902 33.6434C69.8017 33.8953 69.4319 34.0213 68.9819 34.0213ZM67.4404 46.2172C67.0477 46.2172 66.7531 46.1199 66.5571 45.9252C66.3605 45.7305 66.2624 45.4213 66.2624 44.9976C66.2624 44.5281 66.3722 43.6922 66.5916 42.4897C66.8222 41.2873 67.2092 39.478 67.7522 37.0617L66.9898 36.2028C67.2671 35.9853 67.5846 35.8135 67.9427 35.6875C68.3119 35.5501 68.6467 35.4814 68.9468 35.4814C69.2933 35.4814 69.5361 35.5558 69.6748 35.7047C69.8246 35.8421 69.8998 36.0826 69.8998 36.4261C69.8998 36.5178 69.79 37.0102 69.5706 37.9034C69.2125 39.3577 68.9123 40.6747 68.6701 41.8542C68.4389 43.0337 68.3236 44.03 68.3236 44.843C68.3236 45.2782 68.4272 45.5817 68.6355 45.7534C68.254 46.0626 67.8558 46.2172 67.4404 46.2172ZM77.3075 34.8115C76.765 34.8115 76.3089 34.6511 75.9391 34.3305L75.7659 34.4508L76.4938 37.7316C77.1404 37.6171 77.7001 37.4854 78.1735 37.3365C78.2543 37.5198 78.2949 37.7087 78.2949 37.9034C78.2949 38.2584 78.1334 38.539 77.8098 38.7451C77.498 38.9398 77.0942 39.0485 76.5974 39.0715C76.1474 40.7434 75.7776 42.4268 75.4891 44.1216C75.2001 45.805 75.0558 47.0475 75.0558 47.8491C75.0558 48.2843 75.1828 48.5877 75.4368 48.7595C74.9405 49.0687 74.5072 49.2233 74.138 49.2233C73.7799 49.2233 73.497 49.103 73.2892 48.8625C73.0932 48.6335 72.9946 48.3071 72.9946 47.8834C72.9946 47.3452 73.1105 46.4405 73.341 45.1694C73.5839 43.8983 73.9821 41.9286 74.5362 39.2604C73.9475 39.352 73.4279 39.4723 72.9774 39.6211C72.8966 39.4379 72.8565 39.249 72.8565 39.0543C72.8565 38.6649 73.0297 38.3786 73.3761 38.1954C73.7337 38.0007 74.1898 37.8977 74.7439 37.8862C74.652 36.9014 74.6058 36.094 74.6058 35.4642C74.6058 34.3534 74.8308 33.5461 75.2814 33.0422C75.7314 32.5269 76.3262 32.2692 77.0652 32.2692C77.5269 32.2692 77.9079 32.3952 78.2081 32.6471C78.5088 32.8876 78.6586 33.1968 78.6586 33.5747C78.6586 33.9412 78.5316 34.2389 78.2777 34.4679C78.0237 34.697 77.7001 34.8115 77.3075 34.8115ZM89.2175 37.9378C89.2175 39.1172 88.6054 40.0448 87.3818 40.7205C86.1694 41.3847 84.4373 41.7454 82.1856 41.8027V42.129C82.1856 43.0452 82.3589 43.7666 82.7053 44.2934C83.0517 44.8087 83.5251 45.0663 84.1254 45.0663C84.8756 45.0663 85.4877 44.8316 85.9611 44.3621C86.4345 43.8925 86.6946 43.2685 86.7408 42.4897C87.6759 42.4897 88.1437 42.8333 88.1437 43.5204C88.1437 43.9784 87.9588 44.4194 87.5895 44.843C87.2197 45.2553 86.7118 45.5874 86.0652 45.8393C85.4303 46.0912 84.7258 46.2172 83.9522 46.2172C82.7281 46.2172 81.7696 45.8451 81.0768 45.1007C80.384 44.3563 80.0376 43.3314 80.0376 42.026C80.0376 40.7892 80.3088 39.6727 80.8518 38.6764C81.3942 37.6801 82.145 36.9014 83.1035 36.3403C84.062 35.7677 85.1301 35.4814 86.3075 35.4814C87.2197 35.4814 87.9298 35.699 88.4383 36.1341C88.9579 36.5693 89.2175 37.1705 89.2175 37.9378ZM86.0134 36.5636C85.4242 36.5636 84.8701 36.7525 84.3504 37.1304C83.8425 37.4969 83.4037 38.0065 83.0339 38.6592C82.6763 39.3005 82.4279 40.0276 82.2892 40.8407C83.8826 40.8064 85.1184 40.5315 85.9962 40.0162C86.885 39.5009 87.3295 38.7909 87.3295 37.8862C87.3295 37.4854 87.2086 37.1648 86.9658 36.9243C86.7235 36.6838 86.4061 36.5636 86.0134 36.5636Z" fill="#00B027"/>
<path d="M2.71384 54.7907V53.8611C2.64441 53.8915 2.56069 53.9189 2.46267 53.9432C2.36669 53.9675 2.25948 53.9796 2.14104 53.9796C1.90007 53.9796 1.72241 53.928 1.60806 53.8247C1.4937 53.7193 1.43652 53.5533 1.43652 53.3265V52.6339H1.64482V53.3022C1.64482 53.4702 1.68566 53.5928 1.76734 53.6698C1.85106 53.7467 1.98584 53.7852 2.17167 53.7852C2.27582 53.7852 2.3769 53.774 2.47492 53.7518C2.57294 53.7295 2.65258 53.7022 2.71384 53.6698V52.6339H2.92214V54.7907H2.71384ZM5.32226 54.7907V53.211H5.53055V54.5112L6.50159 53.208H6.68844V54.7907H6.48014V53.5118L5.52442 54.7907H5.32226ZM9.73546 54.8211C9.58024 54.8211 9.4424 54.7836 9.32194 54.7087C9.20142 54.6317 9.10646 54.5315 9.03707 54.4079C8.96762 54.2824 8.93292 54.1446 8.93292 53.9948C8.93292 53.8449 8.96662 53.7092 9.03401 53.5877C9.10139 53.4642 9.19529 53.366 9.31581 53.2931C9.43628 53.2181 9.57512 53.1807 9.7324 53.1807C9.88143 53.1807 10.0121 53.2151 10.1245 53.2839C10.2388 53.3508 10.3246 53.4419 10.3818 53.5574L10.1796 53.6211C10.1347 53.5401 10.0713 53.4774 9.9897 53.4328C9.91006 53.3862 9.82123 53.3629 9.72321 53.3629C9.61494 53.3629 9.51692 53.3903 9.42915 53.445C9.34338 53.4996 9.27393 53.5756 9.22086 53.6728C9.16978 53.768 9.14428 53.8753 9.14428 53.9948C9.14428 54.1143 9.17079 54.2226 9.22392 54.3198C9.27699 54.417 9.34745 54.495 9.43527 54.5537C9.52305 54.6105 9.62006 54.6388 9.72627 54.6388C9.79566 54.6388 9.86305 54.6267 9.92844 54.6024C9.99376 54.5781 10.0499 54.5456 10.0969 54.5051C10.1439 54.4626 10.1755 54.417 10.1919 54.3684L10.3971 54.4292C10.3685 54.5041 10.3215 54.572 10.2562 54.6327C10.1908 54.6914 10.1132 54.7381 10.0234 54.7725C9.9335 54.8049 9.83754 54.8211 9.73546 54.8211ZM13.0216 54.7907V53.3933H12.4519V53.208H13.7997V53.3933H13.2299V54.7907H13.0216ZM16.6623 54.8211C16.5092 54.8211 16.3724 54.7836 16.2519 54.7087C16.1335 54.6337 16.0405 54.5345 15.9731 54.411C15.9057 54.2854 15.8721 54.1497 15.8721 54.0039C15.8721 53.856 15.9057 53.7204 15.9731 53.5968C16.0426 53.4713 16.1365 53.3711 16.2549 53.2961C16.3755 53.2192 16.5112 53.1807 16.6623 53.1807C16.8155 53.1807 16.9513 53.2192 17.0697 53.2961C17.1903 53.3711 17.2842 53.4713 17.3515 53.5968C17.421 53.7204 17.4557 53.856 17.4557 54.0039C17.4557 54.1497 17.422 54.2854 17.3546 54.411C17.2872 54.5345 17.1933 54.6337 17.0728 54.7087C16.9544 54.7836 16.8176 54.8211 16.6623 54.8211ZM16.0834 54.0069C16.0834 54.1244 16.109 54.2317 16.16 54.329C16.2131 54.4241 16.2836 54.5001 16.3713 54.5568C16.4592 54.6115 16.5562 54.6388 16.6623 54.6388C16.7685 54.6388 16.8656 54.6105 16.9533 54.5537C17.0412 54.497 17.1116 54.4201 17.1647 54.3229C17.2178 54.2257 17.2443 54.1183 17.2443 54.0009C17.2443 53.8834 17.2178 53.7761 17.1647 53.6789C17.1116 53.5817 17.0412 53.5047 16.9533 53.448C16.8656 53.3913 16.7685 53.3629 16.6623 53.3629C16.5582 53.3629 16.4622 53.3923 16.3744 53.451C16.2866 53.5078 16.2162 53.5847 16.163 53.6819C16.11 53.7791 16.0834 53.8875 16.0834 54.0069ZM20.1014 54.7907V53.3933H19.5316V53.208H20.8794V53.3933H20.3097V54.7907H20.1014ZM22.9245 54.335C22.9245 54.2378 22.953 54.1538 23.0102 54.0829C23.0674 54.01 23.146 53.9533 23.2461 53.9128C23.3482 53.8723 23.4656 53.852 23.5984 53.852C23.6759 53.852 23.7566 53.8591 23.8403 53.8733C23.924 53.8854 23.9986 53.9027 24.0639 53.9249V53.7913C24.0639 53.6576 24.0241 53.5513 23.9445 53.4723C23.8648 53.3933 23.7546 53.3538 23.6137 53.3538C23.53 53.3538 23.4462 53.37 23.3625 53.4024C23.2788 53.4328 23.192 53.4784 23.1021 53.5391L23.0225 53.3933C23.1266 53.3224 23.2287 53.2698 23.3288 53.2353C23.4289 53.1989 23.531 53.1807 23.6351 53.1807C23.8312 53.1807 23.9864 53.2363 24.1007 53.3477C24.215 53.4591 24.2722 53.613 24.2722 53.8095V54.5416C24.2722 54.5963 24.2977 54.6246 24.3488 54.6267V54.7907C24.3039 54.7968 24.2722 54.7988 24.2539 54.7968C24.2028 54.7947 24.164 54.7785 24.1375 54.7482C24.1109 54.7178 24.0966 54.6854 24.0946 54.651L24.0915 54.5355C24.0201 54.6267 23.9271 54.6975 23.8128 54.7482C23.6984 54.7968 23.582 54.8211 23.4636 54.8211C23.3594 54.8211 23.2665 54.7998 23.1848 54.7573C23.1031 54.7127 23.0388 54.654 22.9919 54.5811C22.9469 54.5061 22.9245 54.4241 22.9245 54.335ZM23.9935 54.4565C24.0404 54.4019 24.0639 54.3512 24.0639 54.3046V54.0738C23.923 54.0191 23.776 53.9918 23.6229 53.9918C23.4738 53.9918 23.3533 54.0211 23.2614 54.0799C23.1695 54.1386 23.1236 54.2186 23.1236 54.3198C23.1236 54.4069 23.1573 54.4859 23.2247 54.5568C23.2941 54.6276 23.3901 54.6631 23.5126 54.6631C23.6127 54.6631 23.7056 54.6439 23.7913 54.6054C23.8792 54.5669 23.9465 54.5173 23.9935 54.4565ZM29.2706 54.0586V53.8672H30.1651V54.0586H29.2706ZM35.6351 54.8089C35.488 54.8089 35.3615 54.7816 35.2552 54.7269C35.1511 54.6702 35.0725 54.5912 35.0194 54.49L35.1909 54.414C35.2297 54.4849 35.2859 54.5406 35.3594 54.5811C35.4329 54.6196 35.5217 54.6388 35.6259 54.6388C35.7505 54.6388 35.8495 54.6105 35.923 54.5537C35.9986 54.497 36.0363 54.4211 36.0363 54.3259C36.0363 54.2409 36.0067 54.171 35.9475 54.1163C35.8883 54.0616 35.8066 54.0343 35.7025 54.0343H35.5401V53.8915H35.7147C35.7821 53.8915 35.8382 53.8662 35.8832 53.8156C35.9301 53.7629 35.9536 53.6981 35.9536 53.6211C35.9536 53.5422 35.9251 53.4784 35.8679 53.4298C35.8127 53.3812 35.731 53.3569 35.6228 53.3569C35.4472 53.3569 35.3236 53.4267 35.2522 53.5665L35.0929 53.4814C35.1399 53.3882 35.2093 53.3153 35.3012 53.2627C35.3931 53.2101 35.5024 53.1837 35.6289 53.1837C35.78 53.1837 35.9036 53.2212 35.9996 53.2961C36.0955 53.369 36.1436 53.4703 36.1436 53.5999C36.1436 53.6748 36.1252 53.7447 36.0884 53.8095C36.0517 53.8743 36.0006 53.9219 35.9353 53.9523C36.0292 53.9826 36.1017 54.0333 36.1527 54.1042C36.2058 54.173 36.2324 54.2551 36.2324 54.3502C36.2324 54.494 36.1762 54.6064 36.0639 54.6874C35.9516 54.7684 35.8087 54.8089 35.6351 54.8089ZM38.352 54.335C38.352 54.2378 38.3805 54.1538 38.4377 54.0829C38.4949 54.01 38.5735 53.9533 38.6736 53.9128C38.7757 53.8723 38.8931 53.852 39.0258 53.852C39.1034 53.852 39.1841 53.8591 39.2678 53.8733C39.3515 53.8854 39.426 53.9027 39.4914 53.9249V53.7913C39.4914 53.6576 39.4516 53.5513 39.372 53.4723C39.2923 53.3933 39.1821 53.3538 39.0412 53.3538C38.9574 53.3538 38.8737 53.37 38.79 53.4024C38.7062 53.4328 38.6194 53.4784 38.5296 53.5391L38.45 53.3933C38.5541 53.3224 38.6562 53.2698 38.7563 53.2353C38.8563 53.1989 38.9585 53.1807 39.0626 53.1807C39.2586 53.1807 39.4138 53.2363 39.5282 53.3477C39.6425 53.4591 39.6997 53.613 39.6997 53.8095V54.5416C39.6997 54.5963 39.7252 54.6246 39.7763 54.6267V54.7907C39.7314 54.7968 39.6997 54.7988 39.6813 54.7968C39.6303 54.7947 39.5915 54.7785 39.5649 54.7482C39.5384 54.7178 39.5241 54.6854 39.5221 54.651L39.519 54.5355C39.4475 54.6267 39.3546 54.6975 39.2403 54.7482C39.1259 54.7968 39.0095 54.8211 38.8911 54.8211C38.7869 54.8211 38.694 54.7998 38.6123 54.7573C38.5306 54.7127 38.4663 54.654 38.4193 54.5811C38.3744 54.5061 38.352 54.4241 38.352 54.335ZM39.421 54.4565C39.4679 54.4019 39.4914 54.3512 39.4914 54.3046V54.0738C39.3505 54.0191 39.2035 53.9918 39.0503 53.9918C38.9012 53.9918 38.7808 54.0211 38.6889 54.0799C38.597 54.1386 38.5511 54.2186 38.5511 54.3198C38.5511 54.4069 38.5847 54.4859 38.6521 54.5568C38.7215 54.6276 38.8175 54.6631 38.9401 54.6631C39.0401 54.6631 39.133 54.6439 39.2188 54.6054C39.3066 54.5669 39.374 54.5173 39.421 54.4565ZM41.8957 54.7998V54.6115C41.9488 54.6115 41.9968 54.5973 42.0397 54.5689C42.0846 54.5406 42.1234 54.4909 42.1561 54.4201C42.1908 54.3492 42.2184 54.251 42.2388 54.1254C42.2592 53.9999 42.2725 53.8409 42.2786 53.6485L42.297 53.208H43.3323V54.7907H43.124V53.3933H42.4808L42.4746 53.6667C42.4644 53.9604 42.4369 54.1892 42.3919 54.3533C42.347 54.5173 42.2827 54.6327 42.1989 54.6996C42.1173 54.7643 42.0162 54.7978 41.8957 54.7998ZM46.372 54.8211C46.2188 54.8211 46.082 54.7836 45.9615 54.7087C45.8431 54.6337 45.7502 54.5345 45.6828 54.411C45.6154 54.2854 45.5817 54.1497 45.5817 54.0039C45.5817 53.856 45.6154 53.7204 45.6828 53.5968C45.7522 53.4713 45.8461 53.3711 45.9646 53.2961C46.085 53.2192 46.2209 53.1807 46.372 53.1807C46.5251 53.1807 46.6609 53.2192 46.7794 53.2961C46.8998 53.3711 46.9938 53.4713 47.0612 53.5968C47.1306 53.7204 47.1653 53.856 47.1653 54.0039C47.1653 54.1497 47.1316 54.2854 47.0642 54.411C46.9968 54.5345 46.9029 54.6337 46.7824 54.7087C46.664 54.7836 46.5272 54.8211 46.372 54.8211ZM45.793 54.0069C45.793 54.1244 45.8186 54.2317 45.8696 54.329C45.9227 54.4241 45.9932 54.5001 46.081 54.5568C46.1688 54.6115 46.2658 54.6388 46.372 54.6388C46.4782 54.6388 46.5751 54.6105 46.663 54.5537C46.7508 54.497 46.8213 54.4201 46.8743 54.3229C46.9274 54.2257 46.954 54.1183 46.954 54.0009C46.954 53.8834 46.9274 53.7761 46.8743 53.6789C46.8213 53.5817 46.7508 53.5047 46.663 53.448C46.5751 53.3913 46.4782 53.3629 46.372 53.3629C46.2678 53.3629 46.1719 53.3923 46.084 53.451C45.9962 53.5078 45.9258 53.5847 45.8727 53.6819C45.8196 53.7791 45.793 53.8875 45.793 54.0069ZM49.4098 54.7907V53.208H50.3624V53.3933H49.618V54.7907H49.4098ZM55.9653 54.8211C55.708 54.8211 55.513 54.7431 55.3803 54.5872C55.2496 54.4292 55.1842 54.2115 55.1842 53.934C55.1842 53.7376 55.2006 53.5715 55.2332 53.4358C55.2659 53.3001 55.3139 53.1877 55.3772 53.0986C55.4405 53.0096 55.5181 52.9376 55.61 52.883C55.7041 52.8262 55.8111 52.7797 55.9314 52.7432L56.6025 52.5245L56.6208 52.7037L55.9742 52.9133C55.8517 52.9559 55.7487 53.0075 55.6651 53.0683C55.5834 53.129 55.5191 53.209 55.4722 53.3083C55.4272 53.4055 55.3987 53.53 55.3864 53.6819C55.4374 53.5644 55.5181 53.4743 55.6284 53.4115C55.7409 53.3468 55.8695 53.3143 56.0143 53.3143C56.1697 53.3143 56.3012 53.3457 56.4092 53.4085C56.5195 53.4713 56.6036 53.5583 56.6604 53.6698C56.7177 53.7812 56.7461 53.9097 56.7461 54.0555C56.7461 54.2864 56.6788 54.4717 56.544 54.6115C56.4114 54.7512 56.2187 54.8211 55.9653 54.8211ZM55.9653 54.6388C56.1469 54.6388 56.2867 54.5872 56.3847 54.4839C56.4849 54.3785 56.5351 54.2388 56.5351 54.0647C56.5351 53.8945 56.4861 53.7558 56.388 53.6485C56.29 53.5412 56.1491 53.4875 55.9653 53.4875C55.859 53.4875 55.7632 53.5097 55.6774 53.5543C55.5916 53.5989 55.5232 53.6637 55.4722 53.7487C55.4232 53.8338 55.3987 53.9391 55.3987 54.0647C55.3987 54.2307 55.4466 54.3684 55.5426 54.4778C55.6406 54.5851 55.7815 54.6388 55.9653 54.6388ZM58.843 54.7998V54.6115C58.8959 54.6115 58.9438 54.5973 58.9867 54.5689C59.0318 54.5406 59.0702 54.4909 59.1031 54.4201C59.1376 54.3492 59.1654 54.251 59.1861 54.1254C59.2061 53.9999 59.2195 53.8409 59.2256 53.6485L59.244 53.208H60.2793V54.7907H60.071V53.3933H59.4278L59.4216 53.6667C59.4116 53.9604 59.3838 54.1892 59.3392 54.3533C59.2941 54.5173 59.2295 54.6327 59.146 54.6996C59.0641 54.7643 58.9633 54.7978 58.843 54.7998ZM63.319 54.8211C63.1659 54.8211 63.0289 54.7836 62.9086 54.7087C62.79 54.6337 62.6969 54.5345 62.6296 54.411C62.5622 54.2854 62.5288 54.1497 62.5288 54.0039C62.5288 53.856 62.5622 53.7204 62.6296 53.5968C62.6992 53.4713 62.7933 53.3711 62.9114 53.2961C63.0322 53.2192 63.1681 53.1807 63.319 53.1807C63.4722 53.1807 63.6081 53.2192 63.7262 53.2961C63.847 53.3711 63.9406 53.4713 64.008 53.5968C64.0776 53.7204 64.1121 53.856 64.1121 54.0039C64.1121 54.1497 64.0787 54.2854 64.0113 54.411C63.9439 54.5345 63.8498 54.6337 63.7295 54.7087C63.6109 54.7836 63.4744 54.8211 63.319 54.8211ZM62.7398 54.0069C62.7398 54.1244 62.7654 54.2317 62.8167 54.329C62.8696 54.4241 62.9403 54.5001 63.0278 54.5568C63.1158 54.6115 63.2127 54.6388 63.319 54.6388C63.4254 54.6388 63.5223 54.6105 63.6098 54.5537C63.6978 54.497 63.7685 54.4201 63.8214 54.3229C63.8743 54.2257 63.901 54.1183 63.901 54.0009C63.901 53.8834 63.8743 53.7761 63.8214 53.6789C63.7685 53.5817 63.6978 53.5047 63.6098 53.448C63.5223 53.3913 63.4254 53.3629 63.319 53.3629C63.2149 53.3629 63.1191 53.3923 63.0311 53.451C62.9431 53.5078 62.8729 53.5847 62.8195 53.6819C62.7666 53.7791 62.7398 53.8875 62.7398 54.0069ZM66.3565 54.7907V53.208H67.3094V53.3933H66.5648V54.7907H66.3565ZM70.4132 54.7907V54.1285C70.2846 54.1892 70.1398 54.2196 69.9783 54.2196C69.6252 54.2196 69.4481 54.0383 69.4481 53.6758V53.208H69.6563V53.6485C69.6563 53.7903 69.6853 53.8936 69.7421 53.9583C69.8017 54.0231 69.8953 54.0555 70.0239 54.0555C70.0974 54.0555 70.1693 54.0474 70.2383 54.0312C70.3102 54.0151 70.3681 53.9938 70.4132 53.9675V53.208H70.6215V54.7907H70.4132ZM73.6679 54.8211C73.5148 54.8211 73.3783 54.7836 73.2575 54.7087C73.1372 54.6337 73.0425 54.5335 72.9729 54.4079C72.9033 54.2824 72.8687 54.1446 72.8687 53.9948C72.8687 53.8469 72.9021 53.7113 72.9695 53.5877C73.0391 53.4642 73.1344 53.366 73.2547 53.2931C73.375 53.2181 73.512 53.1807 73.6651 53.1807C73.8222 53.1807 73.9603 53.2181 74.0784 53.2931C74.197 53.368 74.2889 53.4672 74.3541 53.5908C74.4214 53.7123 74.4554 53.8459 74.4554 53.9918C74.4554 54.0242 74.4543 54.0515 74.4521 54.0738H73.0859C73.0965 54.1872 73.1288 54.2885 73.184 54.3776C73.2391 54.4647 73.3098 54.5345 73.3956 54.5872C73.4814 54.6378 73.5755 54.6631 73.6774 54.6631C73.7815 54.6631 73.8796 54.6368 73.9715 54.5841C74.0633 54.5315 74.1285 54.4626 74.1675 54.3776L74.3479 54.4262C74.3156 54.5031 74.2644 54.572 74.1948 54.6327C74.1274 54.6914 74.0489 54.7381 73.9592 54.7725C73.8695 54.8049 73.7721 54.8211 73.6679 54.8211ZM73.0798 53.9249H74.2594C74.251 53.8115 74.2193 53.7113 74.1642 53.6242C74.109 53.5351 74.0388 53.4662 73.9531 53.4176C73.8673 53.367 73.7721 53.3417 73.6679 53.3417C73.5638 53.3417 73.4691 53.367 73.3833 53.4176C73.2976 53.4662 73.2268 53.5351 73.1717 53.6242C73.1188 53.7113 73.0882 53.8115 73.0798 53.9249ZM77.3682 54.8211C77.2128 54.8211 77.0752 54.7836 76.9544 54.7087C76.8341 54.6317 76.7394 54.5315 76.6698 54.4079C76.6002 54.2824 76.5656 54.1446 76.5656 53.9948C76.5656 53.8449 76.599 53.7092 76.6664 53.5877C76.7338 53.4642 76.8279 53.366 76.9482 53.2931C77.0691 53.2181 77.2078 53.1807 77.3648 53.1807C77.5141 53.1807 77.645 53.2151 77.7569 53.2839C77.8716 53.3508 77.9574 53.4419 78.0142 53.5574L77.812 53.6211C77.7675 53.5401 77.704 53.4774 77.6221 53.4328C77.5425 53.3862 77.4539 53.3629 77.3559 53.3629C77.2479 53.3629 77.1498 53.3903 77.0619 53.445C76.9761 53.4996 76.9065 53.5756 76.8536 53.6728C76.8023 53.768 76.7767 53.8753 76.7767 53.9948C76.7767 54.1143 76.8034 54.2226 76.8564 54.3198C76.9098 54.417 76.98 54.495 77.068 54.5537C77.156 54.6105 77.2529 54.6388 77.3587 54.6388C77.4283 54.6388 77.4957 54.6267 77.5609 54.6024C77.6266 54.5781 77.6828 54.5456 77.7296 54.5051C77.7764 54.4626 77.8081 54.417 77.8243 54.3684L78.0298 54.4292C78.0014 54.5041 77.9541 54.572 77.8889 54.6327C77.8237 54.6914 77.7458 54.7381 77.6561 54.7725C77.5664 54.8049 77.4701 54.8211 77.3682 54.8211ZM80.6546 54.7907V53.3933H80.0849V53.208H81.4327V53.3933H80.8629V54.7907H80.6546ZM83.6119 54.7907V53.211H83.8202V54.5112L84.7915 53.208H84.9781V54.7907H84.7698V53.5118L83.8141 54.7907H83.6119ZM87.2136 54.7907L87.6881 54.1436C87.5778 54.1294 87.4904 54.0829 87.4247 54.0039C87.3595 53.9249 87.3266 53.8176 87.3266 53.6819C87.3266 53.5928 87.3484 53.5128 87.3913 53.4419C87.4341 53.369 87.4943 53.3113 87.5717 53.2688C87.6513 53.2262 87.7443 53.205 87.8507 53.205H88.46V54.7907H88.2517V54.1771H87.8964L87.4464 54.7907H87.2136ZM87.8474 54.0191H88.2517V53.369H87.8841C87.7783 53.369 87.6931 53.3994 87.6302 53.4601C87.5667 53.5189 87.5349 53.5938 87.5349 53.6849C87.5349 53.7781 87.5606 53.8571 87.6118 53.9219C87.6647 53.9867 87.7432 54.0191 87.8474 54.0191Z" fill="black"/>
<defs>
<linearGradient id="paint0_linear_136_873" x1="24.8322" y1="17.7485" x2="24.8322" y2="10.6206" gradientUnits="userSpaceOnUse">
<stop stop-color="white" stop-opacity="0"/>
<stop offset="0.1651" stop-color="#FAFAFA" stop-opacity="0.1651"/>
<stop offset="0.3705" stop-color="#EAEBEB" stop-opacity="0.3705"/>
<stop offset="0.5971" stop-color="#D1D2D3" stop-opacity="0.5971"/>
<stop offset="0.8373" stop-color="#AEB0B2" stop-opacity="0.8373"/>
<stop offset="1" stop-color="#929497"/>
</linearGradient>
<linearGradient id="paint1_linear_136_873" x1="61.8845" y1="9.55424" x2="61.8845" y2="1.13286" gradientUnits="userSpaceOnUse">
<stop stop-color="white" stop-opacity="0"/>
<stop offset="0.1651" stop-color="#FAFAFA" stop-opacity="0.1651"/>
<stop offset="0.3705" stop-color="#EAEBEB" stop-opacity="0.3705"/>
<stop offset="0.5971" stop-color="#D1D2D3" stop-opacity="0.5971"/>
<stop offset="0.8373" stop-color="#AEB0B2" stop-opacity="0.8373"/>
<stop offset="1" stop-color="#929497"/>
</linearGradient>
<linearGradient id="paint2_linear_136_873" x1="64.6809" y1="18.2435" x2="64.6809" y2="11.2555" gradientUnits="userSpaceOnUse">
<stop stop-color="white" stop-opacity="0"/>
<stop offset="0.1651" stop-color="#FAFAFA" stop-opacity="0.1651"/>
<stop offset="0.3705" stop-color="#EAEBEB" stop-opacity="0.3705"/>
<stop offset="0.5971" stop-color="#D1D2D3" stop-opacity="0.5971"/>
<stop offset="0.8373" stop-color="#AEB0B2" stop-opacity="0.8373"/>
<stop offset="1" stop-color="#929497"/>
</linearGradient>
<linearGradient id="paint3_linear_136_873" x1="37.8014" y1="9.02423" x2="63.4559" y2="9.02423" gradientUnits="userSpaceOnUse">
<stop stop-color="#26A9E0"/>
<stop offset="1" stop-color="#2B388F"/>
</linearGradient>
<linearGradient id="paint4_linear_136_873" x1="67.2985" y1="7.90096" x2="73.3138" y2="7.41547" gradientUnits="userSpaceOnUse">
<stop stop-color="#BBBDBF"/>
<stop offset="1" stop-color="#404041"/>
</linearGradient>
<linearGradient id="paint5_linear_136_873" x1="77.395" y1="6.67529" x2="60.9137" y2="18.1463" gradientUnits="userSpaceOnUse">
<stop stop-color="#BBBDBF"/>
<stop offset="1" stop-color="#404041"/>
</linearGradient>
<linearGradient id="paint6_linear_136_873" x1="71.5387" y1="0.220208" x2="71.743" y2="21.2402" gradientUnits="userSpaceOnUse">
<stop stop-color="#BBBDBF"/>
<stop offset="1" stop-color="#404041"/>
</linearGradient>
<linearGradient id="paint7_linear_136_873" x1="19.1817" y1="13.3869" x2="16.1254" y2="16.3216" gradientUnits="userSpaceOnUse">
<stop stop-color="#BBBDBF"/>
<stop offset="1" stop-color="#404041"/>
</linearGradient>
<linearGradient id="paint8_linear_136_873" x1="16.6119" y1="13.9649" x2="13.5304" y2="20.4619" gradientUnits="userSpaceOnUse">
<stop stop-color="#BBBDBF"/>
<stop offset="1" stop-color="#404041"/>
</linearGradient>
<linearGradient id="paint9_linear_136_873" x1="13.8618" y1="8.51598" x2="13.0443" y2="26.033" gradientUnits="userSpaceOnUse">
<stop stop-color="#BBBDBF"/>
<stop offset="0.1949" stop-color="#A8AAAC"/>
<stop offset="0.5905" stop-color="#78797A"/>
<stop offset="1" stop-color="#404041"/>
</linearGradient>
<linearGradient id="paint10_linear_136_873" x1="23.8104" y1="16.8265" x2="23.8104" y2="27.6297" gradientUnits="userSpaceOnUse">
<stop stop-color="#26A9E0"/>
<stop offset="1" stop-color="#2B388F"/>
</linearGradient>
<linearGradient id="paint11_linear_136_873" x1="26.0345" y1="16.8265" x2="26.0345" y2="27.6297" gradientUnits="userSpaceOnUse">
<stop stop-color="#26A9E0"/>
<stop offset="1" stop-color="#2B388F"/>
</linearGradient>
<linearGradient id="paint12_linear_136_873" x1="23.8104" y1="17.0418" x2="23.8104" y2="27.8429" gradientUnits="userSpaceOnUse">
<stop stop-color="#26A9E0"/>
<stop offset="1" stop-color="#2B388F"/>
</linearGradient>
<linearGradient id="paint13_linear_136_873" x1="26.0345" y1="17.0418" x2="26.0345" y2="27.8429" gradientUnits="userSpaceOnUse">
<stop stop-color="#26A9E0"/>
<stop offset="1" stop-color="#2B388F"/>
</linearGradient>
<linearGradient id="paint14_linear_136_873" x1="73.0602" y1="6.50175" x2="77.1501" y2="27.3284" gradientUnits="userSpaceOnUse">
<stop stop-color="#BBBDBF"/>
<stop offset="1" stop-color="#404041"/>
</linearGradient>
<linearGradient id="paint15_linear_136_873" x1="45.0118" y1="24.2983" x2="45.0118" y2="14.6879" gradientUnits="userSpaceOnUse">
<stop stop-color="#26A9E0"/>
<stop offset="1" stop-color="#2B388F"/>
</linearGradient>
<linearGradient id="paint16_linear_136_873" x1="54.7881" y1="0.740696" x2="42.6697" y2="18.7241" gradientUnits="userSpaceOnUse">
<stop stop-color="#26A9E0"/>
<stop offset="1" stop-color="#2B388F"/>
</linearGradient>
<linearGradient id="paint17_linear_136_873" x1="44.9919" y1="11.3231" x2="44.9919" y2="24.657" gradientUnits="userSpaceOnUse">
<stop stop-color="#26A9E0"/>
<stop offset="1" stop-color="#2B388F"/>
</linearGradient>
<linearGradient id="paint18_linear_136_873" x1="65.9998" y1="18.2029" x2="65.9998" y2="25.3241" gradientUnits="userSpaceOnUse">
<stop stop-color="#26A9E0"/>
<stop offset="1" stop-color="#2B388F"/>
</linearGradient>
<linearGradient id="paint19_linear_136_873" x1="63.8721" y1="18.2029" x2="63.8721" y2="25.3242" gradientUnits="userSpaceOnUse">
<stop stop-color="#26A9E0"/>
<stop offset="1" stop-color="#2B388F"/>
</linearGradient>
<linearGradient id="paint20_linear_136_873" x1="65.9998" y1="18.4175" x2="65.9998" y2="25.5388" gradientUnits="userSpaceOnUse">
<stop stop-color="#26A9E0"/>
<stop offset="1" stop-color="#2B388F"/>
</linearGradient>
<linearGradient id="paint21_linear_136_873" x1="63.8721" y1="18.4175" x2="63.8721" y2="25.5388" gradientUnits="userSpaceOnUse">
<stop stop-color="#26A9E0"/>
<stop offset="1" stop-color="#2B388F"/>
</linearGradient>
</defs>
</svg>
